<svg width="20" height="20" viewBox="0 0 20 20" fill="none" xmlns="http://www.w3.org/2000/svg">
<path opacity="0.12" d="M18.3333 11.4491V6.06835C18.3333 5.92265 18.2569 5.78763 18.132 5.71266C17.9996 5.63326 17.8341 5.6339 17.7024 5.71432L12.5012 8.88977C11.5927 9.44447 11.1384 9.72182 10.6525 9.83009C10.2228 9.92585 9.77724 9.92585 9.34751 9.83009C8.86162 9.72182 8.40735 9.44447 7.49879 8.88977L2.29762 5.71432C2.16589 5.6339 2.0004 5.63326 1.86806 5.71266C1.74312 5.78763 1.66667 5.92265 1.66667 6.06835V11.4491C1.66667 12.4401 1.66667 12.9357 1.80886 13.3809C1.93469 13.7749 2.14063 14.1386 2.41376 14.4493C2.72239 14.8003 3.14729 15.0552 3.99709 15.5651L7.53043 17.6851C8.42833 18.2238 8.87728 18.4932 9.35654 18.5984C9.78047 18.6915 10.2195 18.6915 10.6435 18.5984C11.1227 18.4932 11.5717 18.2238 12.4696 17.6851L16.0029 15.5651L16.0029 15.5651C16.8527 15.0552 17.2776 14.8003 17.5863 14.4493C17.8594 14.1386 18.0653 13.7749 18.1912 13.3809C18.3333 12.9357 18.3333 12.4401 18.3333 11.4491Z" fill="#B28FE8"/>
<path d="M6.2499 7.91668L13.75 3.33334M10 10.4167L17.5 5.83334M10 10.4167L2.50001 5.83334M10 10.4167V18.75M1.66667 8.55106V11.449C1.66667 12.44 1.66667 12.9355 1.80886 13.3807C1.93469 13.7748 2.14063 14.1385 2.41376 14.4491C2.72239 14.8001 3.14729 15.055 3.99709 15.5649L7.53043 17.6849C8.42833 18.2237 8.87728 18.493 9.35654 18.5983C9.78047 18.6914 10.2195 18.6914 10.6435 18.5983C11.1227 18.493 11.5717 18.2237 12.4696 17.6849L16.0029 15.5649C16.8527 15.055 17.2776 14.8001 17.5863 14.4491C17.8594 14.1385 18.0653 13.7748 18.1912 13.3807C18.3333 12.9355 18.3333 12.44 18.3333 11.449V8.55106C18.3333 7.56003 18.3333 7.06452 18.1912 6.61927C18.0653 6.22526 17.8594 5.86153 17.5863 5.55091C17.2776 5.19991 16.8527 4.94497 16.0029 4.43509L12.4696 2.31509C11.5717 1.77635 11.1227 1.50698 10.6435 1.40173C10.2195 1.30864 9.78047 1.30864 9.35654 1.40173C8.87728 1.50698 8.42833 1.77635 7.53043 2.31509L3.99709 4.43509C3.14729 4.94497 2.72239 5.19991 2.41376 5.55091C2.14063 5.86152 1.93469 6.22526 1.80886 6.61927C1.66667 7.06452 1.66667 7.56003 1.66667 8.55106Z" stroke="#B28FE8" stroke-width="1.5" stroke-linecap="round" stroke-linejoin="round"/>
</svg>
