<svg width="20" height="20" viewBox="0 0 20 20" fill="none" xmlns="http://www.w3.org/2000/svg">
<path opacity="0.12" d="M10 18.3334C14.6024 18.3334 18.3333 14.6024 18.3333 10C18.3333 5.39765 14.6024 1.66669 10 1.66669C5.39763 1.66669 1.66667 5.39765 1.66667 10C1.66667 14.6024 5.39763 18.3334 10 18.3334Z" fill="#B28FE8"/>
<path d="M6.77169 10.8334C7.14172 12.271 8.44681 13.3334 10 13.3334C10.9956 13.3334 11.8892 12.8969 12.5 12.2049M6.77169 10.8334C6.70313 10.567 6.66667 10.2878 6.66667 10C6.66667 9.71227 6.70313 9.43304 6.77169 9.16669M6.77169 10.8334H5.83334M6.77169 10.8334H9.16667M6.77169 9.16669C7.14172 7.729 8.44681 6.66669 10 6.66669C10.9956 6.66669 11.8892 7.10315 12.5 7.79517M6.77169 9.16669H5.83334M6.77169 9.16669H10M18.3333 10V10C18.3333 5.39765 14.6024 1.66669 10 1.66669V1.66669C5.39763 1.66669 1.66667 5.39765 1.66667 10V10C1.66667 14.6024 5.39763 18.3334 10 18.3334V18.3334C14.6024 18.3334 18.3333 14.6024 18.3333 10Z" stroke="#B28FE8" stroke-width="1.5" stroke-linecap="round" stroke-linejoin="round"/>
</svg>
