<svg width="31" height="14" viewBox="0 0 31 14" fill="none" xmlns="http://www.w3.org/2000/svg">
<path d="M0.349356 9.865H2.62936C2.76869 10.2957 3.05369 10.6503 3.48436 10.929C3.92769 11.195 4.50402 11.328 5.21336 11.328C5.69469 11.328 6.06836 11.2837 6.33436 11.195C6.60036 11.1063 6.78402 10.9797 6.88536 10.815C6.98669 10.6377 7.03736 10.4413 7.03736 10.226C7.03736 9.96 6.95502 9.75733 6.79036 9.618C6.62569 9.466 6.37236 9.34567 6.03036 9.257C5.68836 9.16833 5.25136 9.086 4.71936 9.01C4.18736 8.92133 3.67436 8.81367 3.18036 8.687C2.68636 8.56033 2.24936 8.39567 1.86936 8.193C1.48936 7.97767 1.18536 7.71167 0.957356 7.395C0.742022 7.06567 0.634356 6.66667 0.634356 6.198C0.634356 5.742 0.742022 5.33667 0.957356 4.982C1.18536 4.62733 1.49569 4.32967 1.88836 4.089C2.29369 3.84833 2.76236 3.66467 3.29436 3.538C3.83902 3.41133 4.42169 3.348 5.04236 3.348C5.97969 3.348 6.75869 3.48733 7.37936 3.766C8.00002 4.032 8.46236 4.412 8.76636 4.906C9.08302 5.38733 9.24136 5.94467 9.24136 6.578H7.05636C6.95502 6.10933 6.75236 5.77367 6.44836 5.571C6.14436 5.35567 5.67569 5.248 5.04236 5.248C4.42169 5.248 3.95302 5.343 3.63636 5.533C3.31969 5.723 3.16136 5.98267 3.16136 6.312C3.16136 6.578 3.25636 6.787 3.44636 6.939C3.64902 7.07833 3.94036 7.19233 4.32036 7.281C4.71302 7.36967 5.20069 7.46467 5.78336 7.566C6.27736 7.66733 6.74602 7.78133 7.18936 7.908C7.64536 8.03467 8.05069 8.19933 8.40536 8.402C8.76002 8.592 9.03869 8.85167 9.24136 9.181C9.45669 9.49767 9.56436 9.903 9.56436 10.397C9.56436 11.005 9.38702 11.518 9.03236 11.936C8.69036 12.354 8.19636 12.677 7.55036 12.905C6.90436 13.1203 6.13169 13.228 5.23236 13.228C4.43436 13.228 3.74402 13.1457 3.16136 12.981C2.59136 12.8037 2.11636 12.582 1.73636 12.316C1.35636 12.0373 1.05869 11.746 0.843355 11.442C0.640689 11.1253 0.501356 10.8277 0.425356 10.549C0.349356 10.2703 0.324022 10.0423 0.349356 9.865ZM18.807 0.707C20.1876 0.707 21.3403 0.871666 22.265 1.201C23.1896 1.53033 23.9243 1.98 24.469 2.55C25.0263 3.10733 25.419 3.75333 25.647 4.488C25.8876 5.22267 26.008 5.99533 26.008 6.806C26.008 7.61667 25.875 8.39567 25.609 9.143C25.3556 9.89033 24.944 10.5553 24.374 11.138C23.8166 11.708 23.0756 12.164 22.151 12.506C21.239 12.8353 20.1243 13 18.807 13H11.777V0.707H18.807ZM14.304 10.834H18.75C19.662 10.834 20.4156 10.7263 21.011 10.511C21.619 10.283 22.1003 9.979 22.455 9.599C22.8096 9.219 23.063 8.78833 23.215 8.307C23.367 7.82567 23.443 7.32533 23.443 6.806C23.443 6.28667 23.367 5.79267 23.215 5.324C23.063 4.85533 22.8096 4.43733 22.455 4.07C22.1003 3.70267 21.619 3.41133 21.011 3.196C20.4156 2.98067 19.662 2.873 18.75 2.873H14.304V10.834ZM30.2614 10.834V13H27.3924V10.834H30.2614Z" fill="white"/>
</svg>
