<svg width="20" height="20" viewBox="0 0 20 20" fill="none" xmlns="http://www.w3.org/2000/svg">
<g clip-path="url(#clip0_3_212)">
<path opacity="0.12" d="M3.33334 9.16669H16.6667V13.5334C16.6667 15.2135 16.6667 16.0536 16.3397 16.6953C16.0521 17.2598 15.5931 17.7188 15.0286 18.0064C14.3869 18.3334 13.5468 18.3334 11.8667 18.3334H8.13334C6.45318 18.3334 5.61311 18.3334 4.97137 18.0064C4.40689 17.7188 3.94794 17.2598 3.66032 16.6953C3.33334 16.0536 3.33334 15.2135 3.33334 13.5334V9.16669Z" fill="#B28FE8"/>
<path d="M16.6667 9.16669V13.5334C16.6667 15.2135 16.6667 16.0536 16.3397 16.6953C16.0521 17.2598 15.5931 17.7188 15.0286 18.0064C14.3869 18.3334 13.5468 18.3334 11.8667 18.3334H8.13333C6.45318 18.3334 5.6131 18.3334 4.97137 18.0064C4.40688 17.7188 3.94794 17.2598 3.66032 16.6953C3.33334 16.0536 3.33334 15.2135 3.33334 13.5334V9.16669M10 5.83335V18.3334M10 5.83335H12.9167C14.0673 5.83335 15 4.90061 15 3.75002C15 2.59943 14.0673 1.66669 12.9167 1.66669H12.8498C11.9003 1.66669 11.0632 2.28953 10.7903 3.19903L10 5.83335ZM10 5.83335H7.08334C5.93275 5.83335 5.00001 4.90061 5.00001 3.75002C5.00001 2.59943 5.93275 1.66669 7.08334 1.66669H7.1502C8.09974 1.66669 8.93686 2.28953 9.20971 3.19903L10 5.83335ZM3.33334 9.16669H16.6667C17.5871 9.16669 18.3333 8.4205 18.3333 7.50002V7.50002C18.3333 6.57955 17.5871 5.83335 16.6667 5.83335H3.33334C2.41286 5.83335 1.66667 6.57955 1.66667 7.50002V7.50002C1.66667 8.4205 2.41286 9.16669 3.33334 9.16669Z" stroke="#B28FE8" stroke-width="1.5" stroke-linecap="round" stroke-linejoin="round"/>
</g>
<defs>
<clipPath id="clip0_3_212">
<rect width="20" height="20" fill="white"/>
</clipPath>
</defs>
</svg>
