<svg width="20" height="20" viewBox="0 0 20 20" fill="none" xmlns="http://www.w3.org/2000/svg">
<path opacity="0.12" d="M2.32847 13.3091C1.83685 10.851 1.59104 9.6219 1.89109 8.65161C2.19967 7.65374 2.88633 6.81614 3.80431 6.31786C4.69692 5.83334 5.95031 5.83334 8.45711 5.83334H11.5429C14.0497 5.83334 15.3031 5.83334 16.1957 6.31786C17.1137 6.81614 17.8003 7.65374 18.1089 8.65161C18.4089 9.6219 18.1631 10.851 17.6715 13.3091C17.3281 15.0263 17.1563 15.8849 16.7252 16.5377C16.2804 17.2113 15.6421 17.7345 14.8944 18.0386C14.1697 18.3333 13.2941 18.3333 11.5429 18.3333H8.4571C6.70587 18.3333 5.83025 18.3333 5.1056 18.0386C4.35785 17.7345 3.7196 17.2113 3.27475 16.5377C2.84364 15.8849 2.67192 15.0263 2.32847 13.3091Z" fill="#B28FE8"/>
<path d="M4.99999 5.83332L7.49999 1.66666M12.5 1.66666L15 5.83332M8.4571 18.3333H11.5429C13.2941 18.3333 14.1697 18.3333 14.8944 18.0386C15.6421 17.7345 16.2804 17.2113 16.7252 16.5377C17.1563 15.8849 17.3281 15.0263 17.6715 13.309V13.309C18.1631 10.8509 18.4089 9.62188 18.1089 8.65159C17.8003 7.65372 17.1137 6.81612 16.1957 6.31784C15.3031 5.83332 14.0497 5.83332 11.5429 5.83332H8.4571C5.95031 5.83332 4.69692 5.83332 3.80431 6.31784C2.88633 6.81612 2.19967 7.65372 1.89109 8.65159C1.59104 9.62188 1.83685 10.8509 2.32847 13.309V13.309C2.67192 15.0263 2.84364 15.8849 3.27475 16.5377C3.7196 17.2113 4.35785 17.7345 5.1056 18.0386C5.83025 18.3333 6.70587 18.3333 8.4571 18.3333Z" stroke="#B28FE8" stroke-width="1.5" stroke-linecap="round" stroke-linejoin="round"/>
</svg>
