<svg width="27" height="27" viewBox="0 0 27 27" fill="none" xmlns="http://www.w3.org/2000/svg">
<path opacity="0.12" d="M10.6378 4.59933C11.5591 2.75691 12.0197 1.83569 12.643 1.54008C13.1854 1.28282 13.8146 1.28282 14.3571 1.54008C14.9804 1.83569 15.441 2.75691 16.3622 4.59934L17.2215 6.3179C17.5059 6.88678 17.6481 7.17121 17.8562 7.38899C18.0403 7.58176 18.2612 7.73577 18.5058 7.84194C18.782 7.96189 19.0981 7.99701 19.7302 8.06725L21.1814 8.22849C23.3896 8.47385 24.4937 8.59653 24.9927 9.10561C25.4263 9.54802 25.6305 10.1664 25.5455 10.78C25.4477 11.4861 24.6336 12.242 23.0055 13.7539L21.7861 14.8861C21.2304 15.4022 20.9525 15.6602 20.7919 15.9729C20.65 16.2493 20.5744 16.5549 20.5711 16.8656C20.5674 17.2171 20.6929 17.5749 20.944 18.2905L21.3843 19.5452C22.2022 21.8764 22.6112 23.042 22.3396 23.7338C22.1041 24.3339 21.5937 24.7836 20.9688 24.9418C20.2483 25.1241 19.1434 24.5717 16.9337 23.4668L14.9311 22.4655C14.4064 22.2032 14.144 22.072 13.8688 22.0204C13.6251 21.9746 13.3749 21.9746 13.1312 22.0204C12.856 22.072 12.5937 22.2032 12.0689 22.4655L10.0663 23.4668C7.85659 24.5717 6.75172 25.1241 6.03124 24.9418C5.40631 24.7836 4.89595 24.3339 4.66036 23.7338C4.38876 23.042 4.79775 21.8764 5.61572 19.5452L6.05596 18.2905C6.30706 17.5749 6.43261 17.2171 6.42891 16.8656C6.42565 16.5549 6.35005 16.2493 6.20811 15.9729C6.04751 15.6602 5.76964 15.4022 5.21388 14.8861L3.99454 13.7539C2.36641 12.242 1.55234 11.4861 1.45453 10.78C1.36953 10.1664 1.57367 9.54802 2.00729 9.10561C2.50627 8.59653 3.61038 8.47385 5.8186 8.22849L7.26976 8.06725C7.90189 7.99701 8.21795 7.96189 8.49423 7.84194C8.73879 7.73577 8.95965 7.58176 9.14383 7.38899C9.35189 7.17121 9.49411 6.88678 9.77855 6.31791L10.6378 4.59933Z" fill="#B28FE8"/>
<path d="M10.6378 4.59933C11.5591 2.75691 12.0197 1.83569 12.643 1.54008C13.1854 1.28282 13.8146 1.28282 14.3571 1.54008C14.9804 1.83569 15.441 2.75691 16.3622 4.59934L17.2215 6.3179C17.5059 6.88678 17.6481 7.17121 17.8562 7.38899C18.0403 7.58176 18.2612 7.73577 18.5058 7.84194C18.782 7.96189 19.0981 7.99701 19.7302 8.06725L21.1814 8.22849C23.3896 8.47385 24.4937 8.59653 24.9927 9.10561C25.4263 9.54802 25.6305 10.1664 25.5455 10.78C25.4477 11.4861 24.6336 12.242 23.0055 13.7539L21.7861 14.8861C21.2304 15.4022 20.9525 15.6602 20.7919 15.9729C20.65 16.2493 20.5744 16.5549 20.5711 16.8656C20.5674 17.2171 20.6929 17.5749 20.944 18.2905L21.3843 19.5452C22.2022 21.8764 22.6112 23.042 22.3396 23.7338C22.1041 24.3339 21.5937 24.7836 20.9688 24.9418C20.2483 25.1241 19.1434 24.5717 16.9337 23.4668L14.9311 22.4655C14.4064 22.2032 14.144 22.072 13.8688 22.0204C13.6251 21.9746 13.3749 21.9746 13.1312 22.0204C12.856 22.072 12.5937 22.2032 12.0689 22.4655L10.0663 23.4668C7.85659 24.5717 6.75172 25.1241 6.03124 24.9418C5.40631 24.7836 4.89595 24.3339 4.66036 23.7338C4.38876 23.042 4.79775 21.8764 5.61572 19.5452L6.05596 18.2905C6.30706 17.5749 6.43261 17.2171 6.42891 16.8656C6.42565 16.5549 6.35005 16.2493 6.20811 15.9729C6.04751 15.6602 5.76964 15.4022 5.21388 14.8861L3.99454 13.7539C2.36641 12.242 1.55234 11.4861 1.45453 10.78C1.36953 10.1664 1.57367 9.54802 2.00729 9.10561C2.50627 8.59653 3.61038 8.47385 5.8186 8.22849L7.26976 8.06725C7.90189 7.99701 8.21795 7.96189 8.49423 7.84194C8.73879 7.73577 8.95965 7.58176 9.14383 7.38899C9.35189 7.17121 9.49411 6.88678 9.77855 6.31791L10.6378 4.59933Z" stroke="#B28FE8" stroke-width="1.5" stroke-linecap="round" stroke-linejoin="round"/>
</svg>
